<?xml version="1.0" encoding="UTF-8"?>
<svg version="1.1" xmlns="http://www.w3.org/2000/svg" width="292" height="265">
<path d="M0 0 C96.36 0 192.72 0 292 0 C292 87.45 292 174.9 292 265 C195.64 265 99.28 265 0 265 C0 177.55 0 90.1 0 0 Z " fill="#FEFEFE" transform="translate(0,0)"/>
<path d="M0 0 C6.63838372 -0.12660891 13.27645711 -0.21427006 19.91577148 -0.2746582 C22.17500442 -0.29982755 24.43415574 -0.33396593 26.69311523 -0.37719727 C29.93754182 -0.4377409 33.18089358 -0.46618557 36.42578125 -0.48828125 C37.94465691 -0.52699089 37.94465691 -0.52699089 39.49421692 -0.56648254 C42.08689804 -0.56752335 44.45939822 -0.51587829 47 0 C48.95507812 2.13647461 48.95507812 2.13647461 50 5 C50.52489014 5.98726074 51.04978027 6.97452148 51.59057617 7.99169922 C52.4332605 9.63162842 52.4332605 9.63162842 53.29296875 11.3046875 C53.60010803 11.90087387 53.90724731 12.49706024 54.22369385 13.11131287 C54.87643963 14.37851722 55.52849298 15.64607846 56.17990112 16.91397095 C57.87150678 20.20624124 59.56815276 23.49590765 61.265625 26.78515625 C61.5955394 27.42452621 61.9254538 28.06389618 62.2653656 28.72264099 C64.61707652 33.2740367 67.00525441 37.80373029 69.4375 42.3125 C72.35438054 47.73852508 75.12795629 53.22174164 77.86108398 58.74145508 C80.49360714 64.03780293 83.23112494 69.2738207 86 74.5 C89.43527003 80.98456931 92.77583787 87.50557368 96.03125 94.08203125 C98.44150426 98.93157898 100.95096366 103.72211978 103.5 108.5 C106.55811093 114.2419891 109.56923038 120.00434454 112.5 125.8125 C113.00756836 126.80830078 113.00756836 126.80830078 113.52539062 127.82421875 C115.03438239 130.83595386 116.39597395 133.66946745 117 137 C120.11718503 135.44140748 120.93272531 132.3462502 122.375 129.3125 C127.54861149 118.67730249 133.28595673 108.35169362 139 98 C142.05437758 100.87758478 143.83727025 104.11811351 145.75 107.8125 C146.09853027 108.47540039 146.44706055 109.13830078 146.80615234 109.82128906 C149.72849607 115.40621263 152.53869271 121.04492106 155.32421875 126.69921875 C157.3818966 130.75222058 159.62376677 134.68361522 161.93359375 138.59765625 C163.22543938 141.50785795 163.50596273 142.83773292 163 146 C161.7194984 149.00705563 160.15053645 151.83349874 158.5625 154.6875 C157.64801516 156.37406613 156.73530022 158.06159294 155.82421875 159.75 C155.35677246 160.61238281 154.88932617 161.47476563 154.40771484 162.36328125 C152.14747094 166.59682862 150.00775159 170.88866581 147.875 175.1875 C147.29020874 176.36348755 147.29020874 176.36348755 146.69360352 177.56323242 C145.79394039 179.37459771 144.89667636 181.18715432 144 183 C143.34 183 142.68 183 142 183 C141.64808594 182.34515625 141.29617187 181.6903125 140.93359375 181.015625 C138.25151745 176.0576354 135.51358266 171.15336611 132.625 166.3125 C129.38321316 160.81587032 126.52214277 155.17569994 123.75244141 149.4309082 C122.09526001 146.02805514 120.41629548 142.92341922 118 140 C116.70799995 142.43732377 115.416359 144.87483658 114.125 147.3125 C113.72514893 148.06708496 113.32529785 148.82166992 112.91333008 149.59912109 C110.70660727 153.76647332 108.50624576 157.93702995 106.31640625 162.11328125 C105.87731934 162.95012451 105.43823242 163.78696777 104.98583984 164.64916992 C104.14003626 166.2620496 103.29525778 167.87546738 102.45166016 169.48950195 C100.05921423 174.05007132 97.58250126 178.54415114 95 183 C90.86169446 179.44882248 88.75370545 175.21155201 86.3125 170.4375 C85.87897217 169.603396 85.44544434 168.76929199 84.9987793 167.90991211 C81.55773211 161.23244084 78.3549685 154.4531427 75.18701172 147.64306641 C72.64952919 142.23614686 69.82323305 137.10722308 66.734375 131.9921875 C64.35768365 127.89185963 62.28334211 123.66382368 60.19116211 119.41333008 C57.54960302 114.06024935 54.79679003 108.77347516 52 103.5 C48.53961946 96.96942825 45.17730847 90.4006631 41.8984375 83.77734375 C39.36327356 78.67634856 36.69916284 73.65340131 33.99731445 68.63916016 C31.60141887 64.17453347 29.31060802 59.66564505 27.0625 55.125 C24.29479481 49.53510723 21.43700575 44.00280312 18.5 38.5 C14.50827231 31.01593889 10.68531026 23.45813234 6.92431641 15.85595703 C6.0161745 14.03247716 5.09477423 12.21639899 4.16796875 10.40234375 C3.61753906 9.32082031 3.06710938 8.23929688 2.5 7.125 C2.0153125 6.17882813 1.530625 5.23265625 1.03125 4.2578125 C0 2 0 2 0 0 Z " fill="#010101" transform="translate(22,36)"/>
<path d="M0 0 C6.74386112 -0.20297343 13.48693454 -0.34298898 20.2331543 -0.43945312 C22.527399 -0.47966605 24.82143892 -0.53424675 27.11499023 -0.60351562 C30.41441302 -0.70066252 33.71112613 -0.74594803 37.01171875 -0.78125 C38.03585373 -0.82254028 39.05998871 -0.86383057 40.11515808 -0.90637207 C47.08474634 -0.91075608 47.08474634 -0.91075608 49.72335815 1.71488953 C51.02089226 3.76439323 52.03202109 5.77879507 53 8 C53.63421875 9.12019531 54.2684375 10.24039063 54.921875 11.39453125 C59.14292659 19.28645462 63.0994781 27.26481899 66.85449219 35.38989258 C69.02951141 40.07175577 71.374846 44.55379322 74 49 C77.16474174 47.41762913 78.02663639 44.2024582 79.5 41.125 C80.21434253 39.6644812 80.93057202 38.20488419 81.6484375 36.74609375 C82.02838867 35.97378418 82.40833984 35.20147461 82.79980469 34.40576172 C84.8475167 30.3011738 86.98344232 26.24371945 89.125 22.1875 C89.54837646 21.38530029 89.97175293 20.58310059 90.40795898 19.7565918 C93.21147373 14.45948488 96.05028752 9.18347223 98.94140625 3.93359375 C99.65208033 2.63549903 100.33816806 1.32366387 101 0 C116.51 0 132.02 0 148 0 C147.19553411 4.02232947 146.69173436 5.94268934 144.77734375 9.30078125 C144.09925659 10.50686035 144.09925659 10.50686035 143.4074707 11.73730469 C142.92238037 12.58711914 142.43729004 13.43693359 141.9375 14.3125 C138.43259868 20.56488512 134.9892917 26.82386871 131.8125 33.25 C131.49176514 33.8987207 131.17103027 34.54744141 130.84057617 35.21582031 C130.20384977 36.50834743 129.56833409 37.80147175 128.93408203 39.09521484 C119.69414879 57.93733694 109.92958827 76.51344301 100 95 C99.01 95 98.02 95 97 95 C96.61779297 94.26064209 96.23558594 93.52128418 95.84179688 92.75952148 C85.53591071 72.81931426 85.53591071 72.81931426 75 53 C71.31028762 58.65099863 68.1546646 64.44238469 65.1875 70.5 C64.3190679 72.25523677 63.45057742 74.01044467 62.58203125 75.765625 C62.15229004 76.63767578 61.72254883 77.50972656 61.27978516 78.40820312 C59.32689005 82.36316963 57.35082477 86.30645365 55.375 90.25 C54.71602188 91.56764635 54.05715454 92.88534811 53.3984375 94.203125 C52.93695313 95.12609375 52.47546875 96.0490625 52 97 C51.34 97 50.68 97 50 97 C43.78076284 85.08898212 37.56902776 73.17414904 31.375 61.25 C27.62442225 54.03085527 23.85985033 46.8196493 20.0625 39.625 C16.15268078 32.21036275 12.26662404 24.78340615 8.39865112 17.34686279 C7.76182595 16.12319599 7.12424167 14.89992391 6.48587036 13.67706299 C5.59129658 11.9629114 4.69988141 10.24711254 3.80859375 8.53125 C3.29095459 7.53673828 2.77331543 6.54222656 2.23999023 5.51757812 C1 3 1 3 0 0 Z " fill="#020202" transform="translate(111,35)"/>
</svg>
