<?xml version="1.0" encoding="UTF-8"?>
<svg version="1.1" xmlns="http://www.w3.org/2000/svg" width="685" height="214">
<path d="M0 0 C1.09445938 0.00212242 1.09445938 0.00212242 2.21102905 0.00428772 C4.54437335 0.00989094 6.87762214 0.0224439 9.2109375 0.03515625 C10.79166528 0.04017084 12.37239457 0.04473382 13.953125 0.04882812 C17.83076604 0.05986141 21.70833557 0.07712814 25.5859375 0.09765625 C25.5859375 4.09765625 25.5859375 4.09765625 23.6484375 6.16015625 C22.9678125 6.79953125 22.2871875 7.43890625 21.5859375 8.09765625 C18.70205164 16.74931383 19.44919822 26.62929817 19.48828125 35.640625 C19.49040367 37.51504021 19.49040367 37.51504021 19.49256897 39.42732239 C19.49718148 42.71023806 19.50612712 45.99310227 19.51727295 49.27600098 C19.52759962 52.64167662 19.53209042 56.00735987 19.53710938 59.37304688 C19.5480766 65.94793637 19.56476775 72.52279211 19.5859375 79.09765625 C20.36984863 78.14084961 21.15375977 77.18404297 21.96142578 76.19824219 C23.93536282 73.78894349 25.77378109 71.97556013 28.4609375 70.34765625 C29.07710938 69.9609375 29.69328125 69.57421875 30.328125 69.17578125 C38.61193555 65.22019005 48.45051399 64.64841194 57.34765625 66.75 C63.47244706 69.17287989 67.63560275 73.21228349 70.58203125 79.08203125 C73.57029874 86.45976343 73.75095227 93.98721806 73.7890625 101.84375 C73.79476257 102.77252457 73.80046265 103.70129913 73.80633545 104.65821838 C73.8157483 106.62068559 73.82230459 108.58316833 73.82617188 110.5456543 C73.83580607 113.49492374 73.86683555 116.44347393 73.8984375 119.39257812 C73.96889253 132.1536785 72.76201851 143.71440094 69.5859375 156.09765625 C78.24085395 151.72626444 82.45354064 145.63843028 85.8359375 136.66015625 C88.31818273 128.68594344 88.88640284 120.38161935 89.5859375 112.09765625 C91.2359375 112.09765625 92.8859375 112.09765625 94.5859375 112.09765625 C94.55975342 110.98318115 94.53356934 109.86870605 94.5065918 108.72045898 C94.41569653 104.56278776 94.35854647 100.40520331 94.3112793 96.24682617 C94.28622423 94.45142825 94.25217012 92.65613142 94.20874023 90.86108398 C94.14768723 88.27171824 94.11963859 85.6837073 94.09765625 83.09375 C94.07184982 82.29867538 94.0460434 81.50360077 94.01945496 80.68443298 C94.01644975 74.63463858 95.62765087 71.67499551 99.5859375 67.09765625 C102.59806779 65.5915911 105.69876372 65.97605294 109 66 C109.72963959 66.00141495 110.45927917 66.0028299 111.21102905 66.00428772 C113.54437335 66.00989094 115.87762214 66.0224439 118.2109375 66.03515625 C119.79166528 66.04017084 121.37239457 66.04473382 122.953125 66.04882812 C126.83076604 66.05986141 130.70833557 66.07712814 134.5859375 66.09765625 C134.5859375 70.09765625 134.5859375 70.09765625 132.6484375 72.16015625 C131.9678125 72.79953125 131.2871875 73.43890625 130.5859375 74.09765625 C127.82559944 82.37867043 128.43684956 91.81149433 128.453125 100.44921875 C128.45216827 101.58869965 128.45121155 102.72818054 128.45022583 103.90219116 C128.44954976 106.29384415 128.45136372 108.68549904 128.45556641 111.07714844 C128.46093277 114.71944319 128.45559668 118.36161522 128.44921875 122.00390625 C128.44987944 124.33984402 128.45116041 126.67578171 128.453125 129.01171875 C128.45008865 130.62924545 128.45008865 130.62924545 128.44699097 132.27944946 C128.06155581 143.19307498 128.06155581 143.19307498 131.5859375 153.09765625 C136.26892712 151.24832277 137.37535578 148.38501909 139.421875 143.984375 C143.53956199 133.77306398 144.49238955 122.95594416 145.5859375 112.09765625 C146.9059375 112.09765625 148.2259375 112.09765625 149.5859375 112.09765625 C149.57705505 110.82058807 149.56817261 109.5435199 149.559021 108.22775269 C149.47792986 96.19186444 149.41796936 84.15603163 149.37868881 72.11993217 C149.35781536 65.93205249 149.32950149 59.74439337 149.28417969 53.55664062 C149.24071428 47.5849605 149.21679857 41.61349252 149.20642853 35.64166641 C149.19903849 33.36348252 149.18460753 31.08531022 149.16301727 28.80721664 C149.13397488 25.61585156 149.12998196 22.42536272 149.13183594 19.23388672 C149.11745483 18.29233231 149.10307373 17.35077789 149.08825684 16.38069153 C149.12347439 10.77713286 149.8106185 7.52702883 153.5859375 3.09765625 C157.54260215 -0.08348707 160.63801525 -0.25912574 165.63671875 -0.1953125 C166.29552536 -0.19106766 166.95433197 -0.18682281 167.63310242 -0.18244934 C169.72197635 -0.16575571 171.80985889 -0.12812433 173.8984375 -0.08984375 C175.32094953 -0.07478472 176.7434768 -0.06109844 178.16601562 -0.04882812 C181.63964101 -0.01588378 185.11269237 0.03583217 188.5859375 0.09765625 C189.5759375 2.07765625 189.5759375 2.07765625 190.5859375 4.09765625 C189.7815625 4.88140625 188.9771875 5.66515625 188.1484375 6.47265625 C181.14310771 13.64884774 183.45044325 27.14992573 183.48828125 36.515625 C183.49015152 37.86753791 183.49157254 39.21945152 183.49256897 40.57136536 C183.49634623 44.09101304 183.50613424 47.61061797 183.51727295 51.13024902 C183.52759142 54.73721743 183.53208871 58.34419289 183.53710938 61.95117188 C183.54776194 69.00001725 183.56477909 76.04883393 183.5859375 83.09765625 C184.10760498 82.34564941 184.62927246 81.59364258 185.16674805 80.81884766 C185.86582275 79.83062012 186.56489746 78.84239258 187.28515625 77.82421875 C187.97182373 76.84533691 188.65849121 75.86645508 189.3659668 74.85791016 C193.163958 70.13558655 197.85634978 67.00751882 203.5859375 65.09765625 C219.98724825 63.98477532 219.98724825 63.98477532 225.97265625 67.6875 C230.95495055 72.04248364 234.36594021 76.88785973 234.82421875 83.57421875 C235.03713758 91.58190232 234.9542903 98.10228715 230.5859375 105.09765625 C229.9465625 106.17015625 229.3071875 107.24265625 228.6484375 108.34765625 C226.50378182 111.20719716 224.18215139 113.64567646 221.5859375 116.09765625 C222.9471875 117.05671875 222.9471875 117.05671875 224.3359375 118.03515625 C232.66818252 125.18830999 232.48692635 135.95684628 233.38037109 146.14257812 C233.62811349 148.49877894 234.05506308 150.78950658 234.5859375 153.09765625 C237.49012599 152.19434679 239.20630688 151.60182178 241.0625 149.13671875 C246.73055067 137.22224488 248.27912983 125.07348771 249.5859375 112.09765625 C251.2359375 112.09765625 252.8859375 112.09765625 254.5859375 112.09765625 C254.5451709 111.35717041 254.5044043 110.61668457 254.46240234 109.85375977 C254.28257636 106.45642783 254.12163035 103.05844478 253.9609375 99.66015625 C253.89648438 98.49548828 253.83203125 97.33082031 253.765625 96.13085938 C253.3308839 86.48504131 253.51987773 78.54718056 259.828125 70.8828125 C267.53204931 63.05904937 277.44633268 60.81793471 288.0859375 60.66015625 C296.46672157 60.7114653 303.01667083 62.12326736 309.5859375 67.59765625 C312.7845632 71.59593838 313.8464542 74.19802167 313.7109375 79.34765625 C313.69289063 80.2396875 313.67484375 81.13171875 313.65625 82.05078125 C313.63304687 82.72625 313.60984375 83.40171875 313.5859375 84.09765625 C308.01125208 87.71366841 302.98026096 87.40485684 296.5859375 87.09765625 C296.5859375 84.43098958 296.5859375 81.76432292 296.5859375 79.09765625 C295.5959375 78.76765625 294.6059375 78.43765625 293.5859375 78.09765625 C292.1009375 79.08765625 292.1009375 79.08765625 290.5859375 80.09765625 C291.88579101 89.96797248 297.76332005 97.46062724 303.4609375 105.34765625 C313.99372485 119.98901232 321.45918077 133.56549343 320.5859375 152.09765625 C329.1213482 140.48001391 330.28852883 126.04479946 331.5859375 112.09765625 C334.8859375 112.09765625 338.1859375 112.09765625 341.5859375 112.09765625 C342.25901921 129.22384652 340.83453136 147.58837794 329.6484375 161.41015625 C320.08000478 171.36324959 306.61300871 175.28778155 293.15234375 176.05859375 C283.34351721 176.16602887 275.03887199 173.86101732 267.578125 167.34375 C262.04057946 161.60926247 259.80729519 155.3772383 259.3984375 147.47265625 C259.4603125 146.68890625 259.5221875 145.90515625 259.5859375 145.09765625 C262.89664588 144.0965611 265.88678519 143.99409491 269.3359375 144.03515625 C270.32078125 144.04417969 271.305625 144.05320313 272.3203125 144.0625 C273.06796875 144.07410156 273.815625 144.08570313 274.5859375 144.09765625 C274.9571875 145.58265625 274.9571875 145.58265625 275.3359375 147.09765625 C276.56741869 151.43884895 278.33487835 156.8465971 281.5859375 160.09765625 C284.54410857 160.34771011 284.54410857 160.34771011 287.5859375 160.09765625 C290.00469597 157.67889778 289.90771879 156.98632581 289.9609375 153.66015625 C289.53024557 137.81522673 277.96719843 124.53937973 268.5546875 112.64453125 C266.5859375 110.09765625 266.5859375 110.09765625 265.5859375 108.09765625 C265.2559375 111.06765625 264.9259375 114.03765625 264.5859375 117.09765625 C262.9359375 117.09765625 261.2859375 117.09765625 259.5859375 117.09765625 C259.56015625 118.15082031 259.534375 119.20398438 259.5078125 120.2890625 C258.98241476 135.29267076 256.89288321 151.65172368 246.1484375 163.03515625 C238.47733736 170.12258573 230.4392915 170.48126206 220.51171875 170.30078125 C213.73130193 169.94995371 209.60345605 168.47494794 204.7734375 163.53515625 C200.30406916 157.93071023 199.07374525 152.01405203 197.88671875 145.078125 C197.76329102 144.37042969 197.63986328 143.66273438 197.51269531 142.93359375 C197.27496426 141.53142669 197.05348155 140.12637988 196.85058594 138.71875 C196.10406075 134.13585217 195.17247744 131.12717414 191.5859375 128.09765625 C189.34838878 127.63064901 189.34838878 127.63064901 186.93188477 127.4675293 C185.71227806 127.35649117 185.71227806 127.35649117 184.46803284 127.24320984 C183.53639565 127.17116081 183.53639565 127.17116081 182.5859375 127.09765625 C182.60950317 128.8916687 182.60950317 128.8916687 182.63354492 130.72192383 C182.68780811 135.15544918 182.7222744 139.58894513 182.75073242 144.02270508 C182.7658273 145.94235163 182.78630523 147.86196365 182.81225586 149.78149414 C182.84860859 152.53931189 182.86565662 155.29667405 182.87890625 158.0546875 C182.90213203 159.34388847 182.90213203 159.34388847 182.92582703 160.65913391 C182.92616692 161.86003914 182.92616692 161.86003914 182.92651367 163.08520508 C182.93650642 164.14110588 182.93650642 164.14110588 182.94670105 165.21833801 C182.47156667 167.69344589 181.560032 168.5746307 179.5859375 170.09765625 C175.1158627 170.74934527 170.59810101 170.56076709 166.0859375 170.53515625 C164.83683594 170.55513672 163.58773437 170.57511719 162.30078125 170.59570312 C161.10582031 170.59505859 159.91085937 170.59441406 158.6796875 170.59375 C157.58333984 170.59560303 156.48699219 170.59745605 155.35742188 170.59936523 C152.5859375 170.09765625 152.5859375 170.09765625 150.73706055 168.25512695 C149.22067205 165.41306436 149.07259667 163.05218501 148.8984375 159.84765625 C148.83269531 158.77 148.76695312 157.69234375 148.69921875 156.58203125 C148.64314453 155.35226563 148.64314453 155.35226563 148.5859375 154.09765625 C148.0290625 154.98453125 147.4721875 155.87140625 146.8984375 156.78515625 C142.76068934 162.95548245 137.42605984 168.10637888 130.10546875 169.99609375 C120.95599488 171.17231695 111.95691325 172.07001502 103.7109375 167.09765625 C99.51714887 163.72854548 97.68052617 158.9222706 95.5859375 154.09765625 C94.92742976 152.76027456 94.2636205 151.42542429 93.5859375 150.09765625 C93.1115625 150.92265625 92.6371875 151.74765625 92.1484375 152.59765625 C85.55253636 162.39860795 76.25407748 167.25667832 65.01660156 169.66503906 C61.09398267 170.36319903 57.18715371 170.61146374 53.2109375 170.78515625 C51.96485718 170.84159302 51.96485718 170.84159302 50.69360352 170.89916992 C40.67720197 171.28716011 28.73076341 171.73041333 20.8046875 164.46484375 C20.4025 164.01367188 20.0003125 163.5625 19.5859375 163.09765625 C19.1528125 164.27328125 19.1528125 164.27328125 18.7109375 165.47265625 C17.5859375 168.09765625 17.5859375 168.09765625 15.5859375 170.09765625 C11.12535407 170.58521887 6.63261297 170.46805945 2.1484375 170.47265625 C0.89482422 170.49714844 -0.35878906 170.52164063 -1.65039062 170.546875 C-2.84986328 170.55074219 -4.04933594 170.55460938 -5.28515625 170.55859375 C-6.38786865 170.56681152 -7.49058105 170.5750293 -8.62670898 170.58349609 C-11.4140625 170.09765625 -11.4140625 170.09765625 -13.06362152 168.46930408 C-14.82472998 165.376441 -14.79697106 163.21974284 -14.80847168 159.66545105 C-14.81456278 159.02177104 -14.82065389 158.37809103 -14.82692957 157.71490556 C-14.84356637 155.56000136 -14.83878304 153.40568763 -14.83398438 151.25073242 C-14.84132447 149.70486334 -14.84991053 148.15899975 -14.85964966 146.61314392 C-14.8818839 142.41464911 -14.88479529 138.21635046 -14.88290215 134.01780486 C-14.8827825 130.51144807 -14.89134443 127.00513292 -14.89967966 123.4987877 C-14.91892165 115.22434262 -14.92179511 106.94999843 -14.91503906 98.67553711 C-14.90840159 90.14463628 -14.93124878 81.61416819 -14.96835279 73.08335513 C-14.99906478 65.75581185 -15.01040808 58.42840764 -15.00651598 51.10080129 C-15.00444954 46.72588881 -15.00991082 42.35131286 -15.03440857 37.97646141 C-15.05669734 33.85996288 -15.05478068 29.74416651 -15.03448105 25.62766457 C-15.0310744 24.1196297 -15.03614535 22.61154739 -15.05046463 21.10357666 C-15.16358142 8.30457127 -15.16358142 8.30457127 -12.00061035 3.70796204 C-8.05251312 -0.27639922 -5.34551639 -0.0387762 0 0 Z M31.5859375 83.09765625 C23.75211971 90.57026054 19.08388539 100.67606029 18.44067383 111.55444336 C17.50659379 133.68358035 17.50659379 133.68358035 24.5859375 154.09765625 C27.82746916 156.25867735 28.82286651 156.74013178 32.5859375 156.09765625 C38.89193733 149.97182784 39.57300186 141.45724219 39.74707031 133.09960938 C39.76703008 131.19276142 39.78070744 129.28584036 39.7890625 127.37890625 C39.79761261 125.8538446 39.79761261 125.8538446 39.80633545 124.29797363 C39.81574552 122.15650461 39.82230347 120.01502136 39.82617188 117.87353516 C39.83590624 114.60814212 39.86697946 111.34337142 39.8984375 108.078125 C39.90496587 105.99088913 39.91021699 103.90364879 39.9140625 101.81640625 C39.9264093 100.846427 39.9387561 99.87644775 39.95147705 98.8770752 C39.93291863 93.2011877 39.42212444 89.07065031 36.5859375 84.09765625 C34.00860836 83.04598098 34.00860836 83.04598098 31.5859375 83.09765625 Z M196.1484375 87.16015625 C189.10598705 95.2332092 185.38738558 105.47846923 184.5859375 116.09765625 C189.64404886 115.61593136 192.67463213 114.35707739 196.5859375 111.09765625 C201.96214715 104.36459369 205.40318176 97.92389426 204.5859375 89.09765625 C203.43027304 86.63615159 203.43027304 86.63615159 201.5859375 85.09765625 C198.43546232 84.77468513 198.43546232 84.77468513 196.1484375 87.16015625 Z " fill="#FFFFFF" transform="translate(329.4140625,24.90234375)"/>
<path d="M0 0 C0.66 0 1.32 0 2 0 C2.0515625 0.62003906 2.103125 1.24007813 2.15625 1.87890625 C3.23388613 10.2918156 6.77396491 16.83223608 10.90332031 24.06494141 C12.65728517 27.15976008 14.32903611 30.29731156 16 33.4375 C16.3295166 34.05334961 16.6590332 34.66919922 16.99853516 35.30371094 C19.76374915 40.49438567 22.39013513 45.74922063 25 51.01928711 C27.25528781 55.5568425 29.59632059 60.03946113 32 64.5 C36.49919529 72.85800218 40.71243507 81.35154155 44.91943359 89.859375 C49.39908902 98.91055142 53.98513528 107.90485779 58.625 116.875 C59.16342529 117.92099365 59.70185059 118.9669873 60.2565918 120.04467773 C63.21679974 125.74714475 66.30683918 131.3034138 69.71630859 136.75048828 C71.05833287 139.10222121 72.05142657 141.46693488 73 144 C77.15552226 137.39378513 80.76673787 130.62267684 84.1796875 123.60546875 C85.38949273 121.15332236 86.68275045 118.78178646 88.0703125 116.42578125 C88.72773438 115.29527344 89.38515625 114.16476563 90.0625 113 C90.67222656 111.989375 91.28195313 110.97875 91.91015625 109.9375 C93.27314479 107.04823628 93.27314479 107.04823628 92.42578125 104.0859375 C90.77923016 100.52216938 89.01852207 97.06288094 87.125 93.625 C86.40162826 92.29075224 85.67896384 90.95612075 84.95703125 89.62109375 C84.61494629 88.99058105 84.27286133 88.36006836 83.92041016 87.71044922 C81.81755423 83.80259548 79.88756159 79.80946337 77.93359375 75.82592773 C74.84478908 69.58269405 71.55700997 63.47036899 68.1875 57.375 C64.16708466 50.06037809 60.27828076 42.70662321 56.59326172 35.21777344 C54.5653021 31.10167098 52.42041865 27.081697 50.16015625 23.08984375 C44.4517611 12.80704441 44.4517611 12.80704441 43 7 C59.5 7 76 7 93 7 C95.64 12.28 98.28 17.56 101 23 C102.88443373 26.6319955 104.77433494 30.25840946 106.6875 33.875 C109.83731728 39.83829044 112.93027385 45.81893498 115.89770508 51.87548828 C117.05547939 54.2014908 117.05547939 54.2014908 119 57 C119.22945312 56.36707031 119.45890625 55.73414063 119.6953125 55.08203125 C121.50251344 50.81292484 123.69288882 46.77498232 125.875 42.6875 C128.99258806 36.8269895 132.05711873 30.9502575 135 25 C138 19 141 13 144 7 C160.17 7 176.34 7 193 7 C193 7.66 193 8.32 193 9 C193.91289795 8.97905273 194.8257959 8.95810547 195.76635742 8.93652344 C199.16766535 8.86817283 202.56823899 8.81811671 205.9699707 8.78027344 C207.43948921 8.76021175 208.90892841 8.73295522 210.37817383 8.69824219 C212.49580487 8.64947859 214.61237687 8.62697839 216.73046875 8.609375 C218.63928833 8.5779541 218.63928833 8.5779541 220.58666992 8.54589844 C224.62367527 9.08297232 226.18090653 10.10956517 229 13 C231.18609884 16.41610619 231.25538836 19.23828555 231.26742554 23.24911499 C231.28022049 25.17540489 231.28022049 25.17540489 231.29327393 27.14060974 C231.29257492 28.56167615 231.29165186 29.98274246 231.29052734 31.40380859 C231.29651243 32.9020369 231.30331793 34.40026212 231.31088257 35.89848328 C231.32855178 39.96671784 231.33323833 44.03486827 231.33451414 48.10313749 C231.33593577 50.64534219 231.34020558 53.1875255 231.34550858 55.72972488 C231.36401183 64.60010384 231.37217881 73.47042269 231.37060547 82.34082031 C231.36940395 90.60697123 231.39050742 98.87286108 231.4220928 107.13894594 C231.44825143 114.23801252 231.45897294 121.33699382 231.45769465 128.43610823 C231.4571849 132.67513367 231.46287534 136.91392711 231.48405075 141.15290451 C231.50342634 145.140451 231.50356255 149.12754402 231.48901749 153.11510658 C231.48692743 154.57679851 231.49164214 156.03851876 231.5037384 157.50016212 C231.51920635 159.49902319 231.50747688 161.49803908 231.49447632 163.49691772 C231.49556585 164.6144663 231.49665539 165.73201488 231.49777794 166.88342857 C230.8765034 170.77320817 229.43214975 172.93408457 227 176 C223.35695136 178.42869909 220.69277661 178.25675675 216.48828125 178.1953125 C215.39594429 178.19106766 215.39594429 178.19106766 214.28153992 178.18673706 C211.95835863 178.17555257 209.63556453 178.15045166 207.3125 178.125 C205.7363337 178.11496794 204.16016135 178.10584248 202.58398438 178.09765625 C198.72250733 178.07561896 194.86131929 178.04110141 191 178 C191.63482752 174.25818011 192.12236318 172.51793222 195 170 C198.57351362 162.85297276 197.14337665 152.07784442 197.12939453 144.26757812 C197.13114685 143.04493759 197.13289917 141.82229706 197.13470459 140.56260681 C197.13832535 137.24235531 197.13751373 133.92216699 197.1343255 130.60191917 C197.13177138 127.10639748 197.13414787 123.61087826 197.13571167 120.11535645 C197.13752452 114.24828616 197.13515034 108.38122852 197.13037109 102.51416016 C197.12493019 95.75733632 197.12669347 89.00054268 197.1321975 82.24371958 C197.13675391 76.41407213 197.13736685 70.58443371 197.13475883 64.75478506 C197.13320992 61.28541667 197.13296391 57.8160624 197.13629532 54.34669495 C197.13975399 50.4752589 197.13494317 46.60385594 197.12939453 42.73242188 C197.13243088 41.03635048 197.13243088 41.03635048 197.13552856 39.30601501 C197.7275192 26.66320471 197.7275192 26.66320471 194 15 C193.01 14.67 192.02 14.34 191 14 C190.2575 15.5159375 190.2575 15.5159375 189.5 17.0625 C187.49314147 21.08328346 185.37805258 25.04255089 183.25 29 C178.46651097 37.9096013 173.98379922 46.96228617 169.50390625 56.02734375 C167.8069779 59.381532 166.03348307 62.69143376 164.25 66 C160.93381678 72.17855681 157.7773539 78.41967843 154.6640625 84.703125 C152.62746053 88.73808289 150.47363332 92.69861169 148.27734375 96.6484375 C147.21586138 98.60260383 146.25103068 100.60889707 145.3125 102.625 C144 105 144 105 141 106 C140.649375 104.9275 140.29875 103.855 139.9375 102.75 C138.14907322 97.96971907 135.5846246 93.78905548 132.96875 89.421875 C129.69960411 83.73978809 126.85042801 77.85150551 123.96728516 71.96679688 C122.32905452 68.63575548 120.66304268 65.31871045 119 62 C117.29066778 64.82039816 115.60117298 67.65243988 113.9375 70.5 C113.45603516 71.31984375 113.45603516 71.31984375 112.96484375 72.15625 C111.94709818 74.01292719 111.94709818 74.01292719 111.1875 76.1328125 C109.07653447 81.22968322 106.32762434 86.01785421 103.72070312 90.875 C102.4609632 93.2405325 101.22159547 95.61456283 100 98 C99.66339355 98.65516602 99.32678711 99.31033203 98.97998047 99.98535156 C97.72786642 102.61486224 96.98128496 104.60758781 97.12109375 107.5390625 C98.22184627 110.62116957 99.57109954 113.46014444 101.0625 116.375 C101.37050537 116.98005371 101.67851074 117.58510742 101.99584961 118.20849609 C104.29901694 122.70848627 106.67676083 127.16840246 109.0625 131.625 C110.05492276 133.4855518 111.04715164 135.34620648 112.0390625 137.20703125 C112.9759235 138.95507677 113.92530552 140.69639344 114.875 142.4375 C115.431875 143.489375 115.98875 144.54125 116.5625 145.625 C117.05878906 146.54539063 117.55507812 147.46578125 118.06640625 148.4140625 C119.19132828 151.52995531 119.04070129 152.87789614 118 156 C117.08122706 157.86433226 116.09777719 159.69775706 115.0625 161.5 C113.09335031 164.9448024 111.44152351 168.30570597 110 172 C109 173.66666667 108 175.33333333 107 177 C106.71382812 177.72574219 106.42765625 178.45148438 106.1328125 179.19921875 C104.73075359 182.66568853 103.06364184 185.97983491 101.375 189.3125 C101.05015625 189.95767578 100.7253125 190.60285156 100.390625 191.26757812 C99.59558044 192.84597541 98.79804366 194.42311694 98 196 C97.72671875 195.44441406 97.4534375 194.88882813 97.171875 194.31640625 C95.91299737 191.82802481 94.58991275 189.38320095 93.25 186.9375 C92.72148437 185.97070312 92.19296875 185.00390625 91.6484375 184.0078125 C90.57185187 182.04342639 89.4937915 180.0798476 88.4140625 178.1171875 C85.87667323 173.49321416 83.40518122 168.8579957 81.078125 164.125 C78.82898794 159.69191825 76.40029898 155.35254215 74 151 C71.17929112 152.41035444 70.79115531 154.16156607 69.4375 157 C65.81514524 164.4306984 61.9550756 171.72319303 58.05761719 179.01269531 C57.09384459 180.82366229 56.14382387 182.64193085 55.1953125 184.4609375 C54.41800781 185.93433594 54.41800781 185.93433594 53.625 187.4375 C53.18414062 188.28183594 52.74328125 189.12617188 52.2890625 189.99609375 C51 192 51 192 48 194 C47.52691406 192.9584375 47.05382812 191.916875 46.56640625 190.84375 C43.13792962 183.38171979 39.59271504 176.06021032 35.5 168.9375 C31.37804745 161.76336074 27.63615868 154.4487233 23.99267578 147.02197266 C22.29857779 143.5712792 20.5892402 140.12822497 18.875 136.6875 C18.54048828 136.01605957 18.20597656 135.34461914 17.86132812 134.65283203 C15.5152739 129.9688214 13.04109159 125.3686818 10.50390625 120.78515625 C7.10933857 114.49859325 3.99587115 108.05917037 0.84375 101.6484375 C-0.8329117 98.2545497 -2.58331545 94.92579292 -4.4375 91.625 C-6.10093723 88.65887097 -7.68366864 85.67502417 -9.1875 82.625 C-11.63931679 77.65968549 -14.22189956 72.7687347 -16.8125 67.875 C-21.33919259 59.31269442 -25.70354083 50.67961819 -30 42 C-31.28453641 39.42741752 -32.57171821 36.85617764 -33.859375 34.28515625 C-34.64476159 32.71169339 -35.42576154 31.13603583 -36.203125 29.55859375 C-38.91399278 24.07680733 -41.79962033 18.7391951 -44.86328125 13.4453125 C-46 11 -46 11 -46 7 C-30.49 7 -14.98 7 1 7 C0.505 3.535 0.505 3.535 0 0 Z " fill="#FFFFFF" transform="translate(65,17)"/>
<path d="M0 0 C1.08998291 -0.00563965 2.17996582 -0.0112793 3.30297852 -0.01708984 C4.49342773 -0.02353516 5.68387695 -0.02998047 6.91040039 -0.03662109 C8.15499023 -0.01728516 9.39958008 0.00205078 10.68188477 0.02197266 C11.92260742 0.00263672 13.16333008 -0.01669922 14.44165039 -0.03662109 C16.22925781 -0.02695312 16.22925781 -0.02695312 18.05297852 -0.01708984 C19.68964478 -0.00863037 19.68964478 -0.00863037 21.359375 0 C24.24438477 0.64697266 24.24438477 0.64697266 26.6003418 2.84301758 C28.41741248 5.94207562 28.74748603 7.61541086 28.74047852 11.17431641 C28.74112305 12.21394531 28.74176758 13.25357422 28.74243164 14.32470703 C28.72245117 15.40042969 28.7024707 16.47615234 28.68188477 17.58447266 C28.68897461 18.65632813 28.69606445 19.72818359 28.70336914 20.83251953 C28.65010727 27.44928236 28.09656791 32.20058469 23.74438477 37.45947266 C19.56384469 40.76906688 13.78347688 39.86998957 8.74438477 39.89697266 C7.78145508 39.91759766 6.81852539 39.93822266 5.82641602 39.95947266 C4.4400293 39.96720703 4.4400293 39.96720703 3.02563477 39.97509766 C2.1806543 39.98444336 1.33567383 39.99378906 0.46508789 40.00341797 C-2.26832797 39.56467708 -3.10092083 38.82978823 -4.75561523 36.64697266 C-6.55707288 31.24259971 -5.98297132 25.42729099 -6.00561523 19.77197266 C-6.02624023 18.49193359 -6.04686523 17.21189453 -6.06811523 15.89306641 C-6.07584961 14.04261719 -6.07584961 14.04261719 -6.08374023 12.15478516 C-6.09308594 11.0270166 -6.10243164 9.89924805 -6.11206055 8.73730469 C-5.58303858 4.15075674 -4.77099096 1.12014938 0 0 Z " fill="#FFFFFF" transform="translate(431.755615234375,40.35302734375)"/>
<path d="" fill="#FFFFFF" transform="translate(0,0)"/>
</svg>
