<?xml version="1.0" encoding="UTF-8"?>
<svg version="1.1" xmlns="http://www.w3.org/2000/svg" width="188" height="188">
<path d="M0 0 C1.38086542 -0.00871049 2.76172119 -0.01908218 4.14256287 -0.03097534 C7.87009977 -0.05760739 11.59722928 -0.05892933 15.32484269 -0.05384874 C18.44825348 -0.05169873 21.57158361 -0.06150316 24.69497699 -0.07105958 C32.07080208 -0.09319971 39.44642343 -0.09415381 46.82226562 -0.08203125 C54.40409755 -0.0699607 61.98518631 -0.09456088 69.56689149 -0.13717139 C76.10058751 -0.17252703 82.63404833 -0.18438666 89.16783637 -0.1778959 C93.05944693 -0.17428866 96.95052756 -0.17935421 100.84205055 -0.20732498 C104.50571775 -0.23267573 108.16823645 -0.22841635 111.8318882 -0.2025032 C113.79761442 -0.19559806 115.76337732 -0.21798728 117.72897339 -0.24163818 C127.19913144 -0.13076998 135.17227306 2.1327295 142.37473774 8.54445457 C150.56036419 17.00259895 151.72708348 26.02209679 151.68286133 37.41577148 C151.69157182 38.7966369 151.7019435 40.17749268 151.71383667 41.55833435 C151.74046872 45.28587126 151.74179065 49.01300077 151.73671007 52.74061418 C151.73456006 55.86402496 151.74436448 58.98735509 151.75392091 62.11074847 C151.77606104 69.48657356 151.77701514 76.86219492 151.76489258 84.23803711 C151.75282202 91.81986903 151.77742221 99.4009578 151.82003272 106.98266298 C151.85538836 113.516359 151.86724799 120.04981982 151.86075723 126.58360785 C151.85714999 130.47521842 151.86221554 134.36629904 151.89018631 138.25782204 C151.91553706 141.92148924 151.91127768 145.58400793 151.88536453 149.24765968 C151.87845939 151.2133859 151.9008486 153.17914881 151.92449951 155.14474487 C151.81363131 164.61490293 149.55013183 172.58804454 143.13840675 179.79050922 C134.68026237 187.97613568 125.66076454 189.14285496 114.26708984 189.09863281 C112.88622443 189.1073433 111.50536865 189.11771499 110.12452698 189.12960815 C106.39699007 189.15624021 102.66986056 189.15756214 98.94224715 189.15248156 C95.81883637 189.15033154 92.69550624 189.16013597 89.57211286 189.1696924 C82.19628776 189.19183253 74.82066641 189.19278663 67.44482422 189.18066406 C59.8629923 189.16859351 52.28190353 189.1931937 44.70019835 189.2358042 C38.16650233 189.27115984 31.63304151 189.28301948 25.09925348 189.27652872 C21.20764291 189.27292148 17.31656228 189.27798703 13.42503929 189.30595779 C9.76137209 189.33130854 6.0988534 189.32704916 2.43520164 189.30113602 C0.46947542 189.29423087 -1.49628748 189.31662009 -3.46188354 189.340271 C-12.9320416 189.22940279 -20.90518321 186.96590332 -28.1076479 180.55417824 C-36.29327435 172.09603386 -37.45999363 163.07653602 -37.41577148 151.68286133 C-37.42448197 150.30199591 -37.43485366 148.92114014 -37.44674683 147.54029846 C-37.47337888 143.81276156 -37.47470081 140.08563204 -37.46962023 136.35801864 C-37.46747021 133.23460785 -37.47727464 130.11127772 -37.48683107 126.98788434 C-37.5089712 119.61205925 -37.5099253 112.23643789 -37.49780273 104.8605957 C-37.48573218 97.27876378 -37.51033237 89.69767501 -37.55294287 82.11596984 C-37.58829851 75.58227381 -37.60015815 69.048813 -37.59366739 62.51502496 C-37.59006015 58.6234144 -37.5951257 54.73233377 -37.62309647 50.84081078 C-37.64844721 47.17714357 -37.64418783 43.51462488 -37.61827469 39.85097313 C-37.61136954 37.88524691 -37.63375876 35.919484 -37.65740967 33.95388794 C-37.54654147 24.48372989 -35.28304199 16.51058827 -28.87131691 9.30812359 C-20.41317253 1.12249714 -11.39367469 -0.04422215 0 0 Z " fill="#FEFEFE" transform="translate(36.866455078125,-0.54931640625)"/>
<path d="M0 0 C7.68656769 5.62841568 11.80033819 14.95404367 16.359375 23.09375 C17.76446454 25.58472799 19.17320188 28.07363571 20.58203125 30.5625 C20.93600479 31.18902466 21.28997833 31.81554932 21.65467834 32.46105957 C24.05753188 36.7058421 26.50248819 40.92367373 28.98046875 45.125 C29.62371094 46.21683594 30.26695313 47.30867188 30.9296875 48.43359375 C32.15117885 50.50092952 33.37629701 52.56612775 34.60546875 54.62890625 C35.15203125 55.55574219 35.69859375 56.48257813 36.26171875 57.4375 C36.74116943 58.24380859 37.22062012 59.05011719 37.71459961 59.88085938 C39.6895748 63.69855506 39.6895748 63.69855506 39.859375 66.09375 C38.65942383 68.87109375 38.65942383 68.87109375 36.81640625 72.03125 C36.49153732 72.59320068 36.1666684 73.15515137 35.83195496 73.73413086 C35.14245277 74.92090814 34.44692384 76.10420151 33.74584961 77.28417969 C32.68010138 79.07988913 31.63461739 80.88621239 30.59179688 82.6953125 C24.37670717 93.34030166 24.37670717 93.34030166 20.859375 96.09375 C18.28735352 96.54345703 18.28735352 96.54345703 15.859375 96.09375 C10.33193985 91.43509966 6.90619144 83.21621893 3.42718506 77.01159668 C2.39411959 75.16925165 1.35445154 73.3307737 0.31298828 71.49316406 C-0.77066907 69.58095767 -1.85394974 67.66855001 -2.9352417 65.75500488 C-6.50931861 59.43041379 -10.13351426 53.13517004 -13.765625 46.84375 C-14.37003418 45.79050537 -14.97444336 44.73726074 -15.59716797 43.65209961 C-18.75419274 38.16292289 -21.96454513 32.71490314 -25.26171875 27.30859375 C-25.92284668 26.21256836 -26.58397461 25.11654297 -27.26513672 23.98730469 C-28.52889069 21.89664996 -29.80724015 19.8147279 -31.10205078 17.74316406 C-31.66263184 16.81084961 -32.22321289 15.87853516 -32.80078125 14.91796875 C-33.30230713 14.10416748 -33.80383301 13.29036621 -34.32055664 12.4519043 C-35.140625 10.09375 -35.140625 10.09375 -34.37939453 7.39819336 C-27.08869677 -6.16445863 -12.09917284 -5.88608409 0 0 Z " fill="#020202" transform="translate(42.140625,47.90625)"/>
<path d="M0 0 C0.70817871 0.00572021 1.41635742 0.01144043 2.14599609 0.01733398 C9.04847591 0.2534589 12.76527757 2.12913129 17.52319336 6.90283203 C22.25481358 12.19480877 25.59817111 18.14412496 29.0625 24.3125 C30.04104594 26.03379025 31.01960673 27.75507224 31.99900818 29.47587585 C32.67480148 30.66435333 33.34956636 31.85341614 34.02333069 33.04304504 C36.44380044 37.31573671 38.89654016 41.56864985 41.3671875 45.8125 C42.05608789 46.99763013 42.74497159 48.18276997 43.43383789 49.36791992 C44.74635498 51.62432344 46.06058223 53.87973325 47.37670898 56.1340332 C47.97040283 57.15843506 48.56409668 58.18283691 49.17578125 59.23828125 C49.95949097 60.58466675 49.95949097 60.58466675 50.7590332 61.95825195 C53.44686923 66.95969268 53.44686923 66.95969268 54.125 69.5 C53.25390625 71.96020508 53.25390625 71.96020508 51.6875 74.51953125 C51.12160156 75.45990234 50.55570312 76.40027344 49.97265625 77.36914062 C49.36292969 78.34044922 48.75320312 79.31175781 48.125 80.3125 C47.54621094 81.27220703 46.96742188 82.23191406 46.37109375 83.22070312 C44.6674358 86.01249161 42.91405809 88.76227565 41.125 91.5 C40.59648437 92.31903809 40.06796875 93.13807617 39.5234375 93.98193359 C39.02070313 94.7136377 38.51796875 95.4453418 38 96.19921875 C37.56429687 96.84076904 37.12859375 97.48231934 36.6796875 98.14331055 C35.125 99.5 35.125 99.5 32.59423828 99.84790039 C30.125 99.5 30.125 99.5 27.7421875 97.234375 C24.10599329 92.38422957 21.22654891 87.01740069 18.25 81.75 C17.25094487 79.99993101 16.25188079 78.24986705 15.2522583 76.50012207 C14.22011879 74.69183576 13.19046032 72.88215381 12.16113281 71.07226562 C9.61766719 66.60435014 7.0469575 62.15226414 4.47460938 57.70092773 C3.24246997 55.56859144 2.01199793 53.43529081 0.78320312 51.30102539 C-2.1428662 46.21933097 -5.07854324 41.14385798 -8.04669189 36.0866394 C-9.44788951 33.69795658 -10.84389285 31.30625784 -12.23950195 28.91430664 C-13.22687825 27.22701199 -14.22175124 25.54411136 -15.21679688 23.86132812 C-15.81298828 22.83845703 -16.40917969 21.81558594 -17.0234375 20.76171875 C-17.55114746 19.86412842 -18.07885742 18.96653809 -18.62255859 18.04174805 C-19.89169786 15.46611279 -20.56965541 13.3507943 -20.875 10.5 C-19.65234375 8.5859375 -19.65234375 8.5859375 -17.8125 6.875 C-17.22339844 6.30523437 -16.63429688 5.73546875 -16.02734375 5.1484375 C-10.91312026 1.2315549 -6.3820973 -0.05963871 0 0 Z " fill="#020202" transform="translate(92.875,44.5)"/>
<path d="M0 0 C4.99405657 2.25944695 8.2270697 6.00263708 11.44921875 10.34765625 C9.69509544 15.23764245 7.16917954 19.64349938 4.63671875 24.16015625 C4.21068359 24.92908203 3.78464844 25.69800781 3.34570312 26.49023438 C2.06471235 28.78671557 0.76123341 31.06877749 -0.55078125 33.34765625 C-0.98140869 34.11384277 -1.41203613 34.8800293 -1.85571289 35.66943359 C-2.27844482 36.39211426 -2.70117676 37.11479492 -3.13671875 37.859375 C-3.50974121 38.50737061 -3.88276367 39.15536621 -4.26708984 39.82299805 C-5.55078125 41.34765625 -5.55078125 41.34765625 -9.36328125 42.34765625 C-10.41515625 42.34765625 -11.46703125 42.34765625 -12.55078125 42.34765625 C-16.90679316 36.85361265 -20.48734867 31.20693576 -23.80078125 25.03515625 C-24.65911286 23.4551619 -25.51844693 21.87571162 -26.37890625 20.296875 C-26.74918945 19.60940186 -27.11947266 18.92192871 -27.50097656 18.21362305 C-28.4395905 16.54529134 -29.4889502 14.94040283 -30.55078125 13.34765625 C-30.67578125 10.53515625 -30.67578125 10.53515625 -29.55078125 7.34765625 C-27.10542267 4.99142235 -24.43771102 3.12587644 -21.55078125 1.34765625 C-20.95394531 0.96867187 -20.35710937 0.5896875 -19.7421875 0.19921875 C-14.03695243 -2.01778882 -5.89199914 -1.50683592 0 0 Z " fill="#030303" transform="translate(167.55078125,45.65234375)"/>
</svg>
