<?xml version="1.0" encoding="UTF-8"?>
<svg version="1.1" xmlns="http://www.w3.org/2000/svg" width="384" height="118">
<path d="M0 0 C9.97576022 6.2858016 14.85718052 17.08116121 20.23291016 27.11572266 C22.43251279 31.1635408 24.74878138 35.14171378 27.0625 39.125 C27.51012695 39.91116699 27.95775391 40.69733398 28.41894531 41.50732422 C30.70577464 45.49982244 33.07548858 49.36604032 35.69140625 53.15234375 C42.8038259 63.65524694 42.8038259 63.65524694 42.19921875 68.43359375 C40.59162301 71.40877798 38.62606467 73.88124624 36.5625 76.5625 C34.76750896 79.68296874 33.11252939 82.8763575 31.4375 86.0625 C26.47481325 95.43678223 26.47481325 95.43678223 22.5625 97.5625 C20.125 98.125 20.125 98.125 17.5625 97.5625 C12.51674221 92.35768154 9.23351813 86.0876525 5.6875 79.8125 C4.68844487 78.06243101 3.68938079 76.31236705 2.6897583 74.56262207 C1.65761879 72.75433576 0.62796032 70.94465381 -0.40136719 69.13476562 C-3.55447654 63.59593468 -6.74860331 58.08077291 -9.9375 52.5625 C-11.16929502 50.4244931 -12.4010657 48.28647218 -13.6328125 46.1484375 C-15.94802772 42.13402616 -18.27271762 38.12540801 -20.60919189 34.12335205 C-22.00928169 31.7243043 -23.40578095 29.3231759 -24.80200195 26.921875 C-25.79093237 25.22451774 -26.78505838 23.53019098 -27.77929688 21.8359375 C-28.67358398 20.29679687 -28.67358398 20.29679687 -29.5859375 18.7265625 C-30.11364746 17.82373535 -30.64135742 16.9209082 -31.18505859 15.99072266 C-32.3326337 13.76581388 -33.16436422 12.04679704 -33.4375 9.5625 C-26.31118096 -1.6020665 -12.26306247 -5.23482509 0 0 Z " fill="#FFFFFF" transform="translate(108.4375,20.4375)"/>
<path d="M0 0 C10.63716079 5.81847778 15.78528752 17.83092179 21.34765625 28.07421875 C22.65939325 30.46800273 23.97579312 32.85920513 25.29296875 35.25 C25.92879883 36.4045166 26.56462891 37.5590332 27.21972656 38.74853516 C30.3713505 44.41349018 33.66484403 49.99099317 36.984375 55.55859375 C37.32001465 56.13158203 37.6556543 56.70457031 38.00146484 57.29492188 C38.7239161 58.49479841 39.47997911 59.6747867 40.26025391 60.83789062 C41.4296875 62.65234375 41.4296875 62.65234375 43.03515625 66.01171875 C41.8728512 69.97545582 39.74530816 73.37194619 37.62890625 76.8984375 C36.96761719 78.00123047 36.30632812 79.10402344 35.625 80.24023438 C35.28194824 80.80782471 34.93889648 81.37541504 34.58544922 81.96020508 C33.53370639 83.70161934 32.48913989 85.44719157 31.4453125 87.19335938 C26.29536198 95.75151302 26.29536198 95.75151302 24.03515625 98.01171875 C21.28515625 98.63671875 21.28515625 98.63671875 18.03515625 98.01171875 C12.68262961 92.70701669 9.18971062 85.31904663 5.5458374 78.81530762 C4.15280833 76.32940817 2.74724984 73.85067118 1.34225464 71.371521 C0.62124918 70.09925904 -0.09918858 68.82667521 -0.81906128 67.55377197 C-4.19225091 61.59355042 -7.63181119 55.67309188 -11.08984375 49.76171875 C-11.64881348 48.80225342 -12.2077832 47.84278809 -12.78369141 46.85424805 C-15.80760046 41.67009317 -18.86216854 36.50620194 -21.94921875 31.359375 C-22.60003418 30.26592773 -23.25084961 29.17248047 -23.92138672 28.04589844 C-25.17178862 25.94608888 -26.4308313 23.85139335 -27.69970703 21.76269531 C-28.25899902 20.82006836 -28.81829102 19.87744141 -29.39453125 18.90625 C-29.89194824 18.07971924 -30.38936523 17.25318848 -30.90185547 16.40161133 C-32.1109396 13.68325474 -32.3317107 11.95489509 -31.96484375 9.01171875 C-23.89667973 -0.71753786 -12.01578907 -4.00526302 0 0 Z " fill="#FFFFFF" transform="translate(43.96484375,19.98828125)"/>
<path d="M0 0 C5.94 0 11.88 0 18 0 C18.33 8.58 18.66 17.16 19 26 C21.31 24.02 23.62 22.04 26 20 C30.73780373 18.87588303 35.3251046 19.46545892 39.9375 20.9375 C46.95460558 27.95460558 47.1540002 38.10984826 47.16796875 47.4609375 C47.17296135 48.64594345 47.17296135 48.64594345 47.17805481 49.85488892 C47.18309033 51.5171857 47.18546419 53.17949247 47.18530273 54.84179688 C47.18748773 57.3608494 47.20567526 59.87946229 47.22460938 62.3984375 C47.22754447 64.02343602 47.22952849 65.6484366 47.23046875 67.2734375 C47.23765427 68.01435638 47.24483978 68.75527527 47.25224304 69.51864624 C47.21455821 78.30704593 45.59145412 86.05551179 40 93 C36.39802439 96.20175609 32.90111164 96.57027548 28.22265625 96.4296875 C24.41649091 95.69387346 22.64329294 93.77545759 20 91 C19.505 90.01 19.505 90.01 19 89 C18.67 90.98 18.34 92.96 18 95 C12.06 95 6.12 95 0 95 C0 63.65 0 32.3 0 0 Z M19.36254883 40.09545898 C17.72289376 43.59070649 17.62718888 46.05725703 17.63671875 49.91015625 C17.63736328 51.22951172 17.63800781 52.54886719 17.63867188 53.90820312 C17.64697021 54.59019775 17.65526855 55.27219238 17.66381836 55.97485352 C17.68746937 58.0597994 17.68436448 60.14346905 17.67773438 62.22851562 C17.32397479 69.98221223 17.32397479 69.98221223 20 77 C22.40110217 78.08024658 22.40110217 78.08024658 25 78 C26.80045337 77.05020675 26.80045337 77.05020675 28 75 C28.28599544 72.29476447 28.39675519 69.82461337 28.36328125 67.12109375 C28.36377975 66.35322037 28.36427826 65.58534698 28.36479187 64.79420471 C28.36245333 63.172754 28.35273769 61.55129952 28.33618164 59.92993164 C28.3125541 57.44319357 28.31562623 54.95752517 28.32226562 52.47070312 C28.31668994 50.89582692 28.30958075 49.32095524 28.30078125 47.74609375 C28.30169266 47.00024521 28.30260406 46.25439667 28.30354309 45.48594666 C28.38225933 41.28488021 28.38225933 41.28488021 26 38 C22.61935634 37.3932178 21.52834459 37.32387332 19.36254883 40.09545898 Z " fill="#FFFFFF" transform="translate(206,19)"/>
<path d="M0 0 C6.27 0 12.54 0 19 0 C19.33 18.81 19.66 37.62 20 57 C23.76096925 48.56976988 23.76096925 48.56976988 25 40 C25.0530127 39.2059375 25.10602539 38.411875 25.16064453 37.59375 C25.31636768 35.06312675 25.44384449 32.53261427 25.5625 30 C25.60568359 29.12988281 25.64886719 28.25976562 25.69335938 27.36328125 C25.79824218 25.24231781 25.89950075 23.12117567 26 21 C31.94 21 37.88 21 44 21 C44.52429885 34.21233102 44.20819498 42.76867225 35 53 C35.763125 53.04125 36.52625 53.0825 37.3125 53.125 C40 54 40 54 41.6496582 56.53955078 C43.21439133 60.54940928 43.3821575 64.01072503 43.29296875 68.2421875 C43.28872391 69.01055939 43.28447906 69.77893127 43.28010559 70.57058716 C43.26341826 73.00575985 43.22578641 75.4400808 43.1875 77.875 C43.17244023 79.53384215 43.15875409 81.19269737 43.14648438 82.8515625 C43.11610889 86.90162751 43.05737331 90.94986932 43 95 C37.06 95 31.12 95 25 95 C24.505 79.655 24.505 79.655 24 64 C21.525 64.495 21.525 64.495 19 65 C19.00785522 66.30988892 19.00785522 66.30988892 19.01586914 67.64624023 C19.03287751 70.87589273 19.04543369 74.10552245 19.05493164 77.33520508 C19.0599708 78.73495228 19.06680216 80.1346942 19.07543945 81.53442383 C19.0875232 83.54245777 19.09269807 85.55052957 19.09765625 87.55859375 C19.10551147 89.37315063 19.10551147 89.37315063 19.11352539 91.22436523 C19 94 19 94 18 95 C15.15664952 95.09986975 12.34302837 95.13877881 9.5 95.125 C8.70207031 95.12886719 7.90414063 95.13273437 7.08203125 95.13671875 C1.12660767 95.12660767 1.12660767 95.12660767 0 94 C-0.09525367 91.07805335 -0.12552736 88.17979671 -0.11352539 85.25756836 C-0.11367142 84.3405867 -0.11381744 83.42360504 -0.1139679 82.47883606 C-0.1132684 79.43248164 -0.10547428 76.38618755 -0.09765625 73.33984375 C-0.0957922 71.23377007 -0.09436824 69.12769597 -0.09336853 67.0216217 C-0.08954231 61.46657117 -0.07971114 55.91154659 -0.06866455 50.35650635 C-0.05845267 44.6927526 -0.05387139 39.02899467 -0.04882812 33.36523438 C-0.03808896 22.24347631 -0.02049132 11.12174437 0 0 Z " fill="#FFFFFF" transform="translate(278,19)"/>
<path d="M0 0 C3.35791082 2.62204623 5.2139229 5.20036244 6.55078125 9.2109375 C7.10346306 13.9676252 7.03429994 17.31059236 4.73828125 21.5859375 C3.07775507 23.57856892 1.47674969 25.4775659 -0.44921875 27.2109375 C0.49953125 27.4996875 1.44828125 27.7884375 2.42578125 28.0859375 C5.55078125 29.2109375 5.55078125 29.2109375 7.55078125 31.2109375 C8.01357929 35.6093701 7.87473184 40.04101167 7.86328125 44.4609375 C7.87939453 45.68941406 7.89550781 46.91789062 7.91210938 48.18359375 C7.91275391 49.37339844 7.91339844 50.56320313 7.9140625 51.7890625 C7.91704346 52.87606445 7.92002441 53.96306641 7.9230957 55.08300781 C7.27074617 60.56359945 4.87029417 64.40756939 0.73828125 67.9609375 C0.09246094 68.53328125 -0.55335938 69.105625 -1.21875 69.6953125 C-7.6863939 74.09013883 -14.93006609 73.80233153 -22.44921875 73.2109375 C-26.6747634 72.32721199 -29.18480582 70.46385422 -32.32421875 67.4609375 C-34.76537564 63.72740344 -35.44921875 61.66337456 -35.44921875 57.2109375 C-34.12779821 51.34568493 -31.07486104 46.91447345 -27.44921875 42.2109375 C-28.56296875 41.9634375 -29.67671875 41.7159375 -30.82421875 41.4609375 C-34.44921875 40.2109375 -34.44921875 40.2109375 -35.65698242 38.44042969 C-37.14956146 34.24005011 -36.77622994 29.87234042 -36.76171875 25.4609375 C-36.77783203 24.49671875 -36.79394531 23.5325 -36.81054688 22.5390625 C-36.8154599 15.30708644 -36.18357187 9.42871217 -31.328125 3.71484375 C-30.56371094 3.07417969 -29.79929687 2.43351562 -29.01171875 1.7734375 C-28.24988281 1.11472656 -27.48804688 0.45601562 -26.703125 -0.22265625 C-19.61493328 -5.14876523 -7.19584469 -4.3452424 0 0 Z M-15.69921875 12.8984375 C-17.7555644 14.18129115 -17.7555644 14.18129115 -18.44921875 17.2109375 C-18.54433036 19.56355107 -18.57908851 21.91890717 -18.57421875 24.2734375 C-18.57679688 25.52253906 -18.579375 26.77164063 -18.58203125 28.05859375 C-18.66870151 31.11294463 -18.66870151 31.11294463 -17.44921875 33.2109375 C-15.0301074 33.15509717 -15.0301074 33.15509717 -12.44921875 32.2109375 C-10.70717771 29.68345423 -10.70717771 29.68345423 -9.57421875 26.5234375 C-9.14367187 25.48832031 -8.713125 24.45320313 -8.26953125 23.38671875 C-7.35857157 19.86000342 -7.44563878 17.69573025 -8.44921875 14.2109375 C-11.20448866 12.4237354 -12.53174918 11.93059958 -15.69921875 12.8984375 Z M-18.44921875 38.2109375 C-21.0539343 43.20598872 -22.00766113 48.62651374 -21.44921875 54.2109375 C-20.78921875 55.2009375 -20.12921875 56.1909375 -19.44921875 57.2109375 C-15.33821087 57.74906287 -15.33821087 57.74906287 -11.77612305 55.93823242 C-10.15978334 53.83416556 -10.09705432 52.82356051 -10.15625 50.19921875 C-10.16591797 49.44189453 -10.17558594 48.68457031 -10.18554688 47.90429688 C-10.22325195 46.72577148 -10.22325195 46.72577148 -10.26171875 45.5234375 C-10.27525391 44.72615234 -10.28878906 43.92886719 -10.30273438 43.10742188 C-10.33804786 41.14163783 -10.39185428 39.17620168 -10.44921875 37.2109375 C-13.49308599 37.12867082 -15.52097223 37.23485533 -18.44921875 38.2109375 Z " fill="#FFFFFF" transform="translate(361.44921875,41.7890625)"/>
<path d="M0 0 C5.94 0 11.88 0 18 0 C18 31.35 18 62.7 18 95 C12.06 95 6.12 95 0 95 C0 63.65 0 32.3 0 0 Z " fill="#FFFFFF" transform="translate(184,19)"/>
<path d="M0 0 C6.27 0 12.54 0 19 0 C19.02255226 9.50074636 19.0409158 19.00147507 19.05181217 28.50224209 C19.05704069 32.91337004 19.06413777 37.3244788 19.07543945 41.7355957 C19.08626944 45.98901115 19.09227707 50.24240809 19.09487724 54.49583626 C19.09673129 56.12221633 19.10035152 57.74859534 19.10573006 59.37496758 C19.11294198 61.64510193 19.11399088 63.91515885 19.11352539 66.18530273 C19.115746 67.47991928 19.11796661 68.77453583 19.12025452 70.10838318 C19 73 19 73 18 74 C15.15664952 74.09986975 12.34302837 74.13877881 9.5 74.125 C8.70207031 74.12886719 7.90414063 74.13273437 7.08203125 74.13671875 C1.12660767 74.12660767 1.12660767 74.12660767 0 73 C-0.09439978 70.73008113 -0.11742226 68.45718033 -0.11352539 66.18530273 C-0.11367142 65.47314606 -0.11381744 64.76098938 -0.1139679 64.0272522 C-0.1132687 61.66266888 -0.10547606 59.29816339 -0.09765625 56.93359375 C-0.09579209 55.29834537 -0.09436818 53.66309643 -0.09336853 52.02784729 C-0.08954318 47.71565215 -0.07971275 43.40349048 -0.06866455 39.09130859 C-0.0584508 34.69434054 -0.05387099 30.29736711 -0.04882812 25.90039062 C-0.03809049 17.26690998 -0.02049356 8.63346301 0 0 Z " fill="#FFFFFF" transform="translate(256,40)"/>
<path d="M0 0 C1.78125 1.109375 1.78125 1.109375 3.4375 2.375 C4.0459375 2.83390625 4.654375 3.2928125 5.28125 3.765625 C7 5.25 7 5.25 9.4375 8.375 C9.08365387 15.0132227 5.53228772 20.19986923 2.28295898 25.82617188 C1.25091851 27.62340048 0.24931626 29.43549073 -0.75195312 31.25 C-1.40486328 32.38953125 -2.05777344 33.5290625 -2.73046875 34.703125 C-3.32110107 35.7437207 -3.9117334 36.78431641 -4.52026367 37.85644531 C-6.99357355 40.90661443 -8.7518831 41.60389472 -12.5625 42.375 C-17.90958424 40.56008404 -19.92335363 35.9899643 -22.5 31.3125 C-23.36901459 29.77430031 -24.23880363 28.23653789 -25.109375 26.69921875 C-25.52638672 25.95591309 -25.94339844 25.21260742 -26.37304688 24.44677734 C-28.3375901 21.02495595 -30.50973833 17.73439485 -32.69921875 14.453125 C-33.86749319 11.64080824 -33.57839162 10.22401162 -32.5625 7.375 C-30.890625 5.42578125 -30.890625 5.42578125 -28.8125 3.6875 C-27.79929688 2.81544922 -27.79929688 2.81544922 -26.765625 1.92578125 C-19.61231511 -3.10943865 -7.96867892 -3.70636229 0 0 Z " fill="#FFFFFF" transform="translate(172.5625,20.625)"/>
<path d="M0 0 C6.27 0 12.54 0 19 0 C19 6.27 19 12.54 19 19 C12.73 19 6.46 19 0 19 C0 12.73 0 6.46 0 0 Z " fill="#FFFFFF" transform="translate(256,19)"/>
</svg>
